<?xml version="1.0" encoding="UTF-8" standalone="no"?>
<?xml-stylesheet href="doxygen.css" type="text/css"?>
<!DOCTYPE svg PUBLIC "-//W3C//DTD SVG 1.1//EN"
 "http://www.w3.org/Graphics/SVG/1.1/DTD/svg11.dtd">
<!-- Generated by graphviz version 2.38.0 (20140413.2041)
 -->
<!-- Title: G Pages: 1 -->
<svg width="1040pt" height="959pt"
 viewBox="0.00 0.00 1039.66 959.00" xmlns="http://www.w3.org/2000/svg" xmlns:xlink="http://www.w3.org/1999/xlink">
<g id="graph0" class="graph" transform="scale(1 1) rotate(0) translate(4 955)">
<title>G</title>
<polygon fill="white" stroke="none" points="-4,4 -4,-955 1035.66,-955 1035.66,4 -4,4"/>
<!-- node22 -->
<g id="node1" class="node"><title>node22</title>
<path fill="none" stroke="black" d="M1000,-951C1000,-951 635,-951 635,-951 629,-951 623,-945 623,-939 623,-939 623,-927 623,-927 623,-921 629,-915 635,-915 635,-915 1000,-915 1000,-915 1006,-915 1012,-921 1012,-927 1012,-927 1012,-939 1012,-939 1012,-945 1006,-951 1000,-951"/>
<polygon fill="white" stroke="none" points="631.5,-925 631.5,-940 1004.5,-940 1004.5,-925 631.5,-925"/>
<text text-anchor="start" x="631.5" y="-928.8" font-family="Times,serif" font-size="14.00"> release_process:process( tb_clk,tb_rst,end_of_file) </text>
</g>
<!-- node0 -->
<g id="node2" class="node"><title>node0</title>
<polygon fill="lightyellow" stroke="none" points="625.5,-835 625.5,-871 1010.5,-871 1010.5,-835 625.5,-835"/>
<polygon fill="none" stroke="black" points="625.5,-835 625.5,-871 1010.5,-871 1010.5,-835 625.5,-835"/>
<text text-anchor="start" x="628.5" y="-856.8" font-family="Times,serif" font-size="14.00"> &#160;variable pre_delay_count:integer &#160;:= &#160;&#160;dut_delay</text>
<text text-anchor="start" x="628.5" y="-841.8" font-family="Times,serif" font-size="14.00"> variable post_delay_count:integer &#160;:= &#160;&#160;dut_delay&#45; 1 </text>
</g>
<!-- node22&#45;&gt;node0 -->
<g id="edge1" class="edge"><title>node22&#45;&gt;node0</title>
<path fill="none" stroke="green" d="M817.5,-914.689C817.5,-906.863 817.5,-897.328 817.5,-888.156"/>
<polygon fill="green" stroke="green" points="821,-888.066 817.5,-878.066 814,-888.066 821,-888.066"/>
</g>
<!-- node2 -->
<g id="node3" class="node"><title>node2</title>
<polygon fill="#c1b2ff" stroke="#c1b2ff" points="817.5,-791 603.173,-773 817.5,-755 1031.83,-773 817.5,-791"/>
<text text-anchor="middle" x="817.5" y="-769.3" font-family="Times,serif" font-size="14.00"> if &#160;&#160;&#160;rising_edge(tb_clk &#160;) then</text>
</g>
<!-- node0&#45;&gt;node2 -->
<g id="edge2" class="edge"><title>node0&#45;&gt;node2:n</title>
<path fill="none" stroke="green" d="M817.5,-827.953C817.5,-819.795 817.5,-810.414 817.5,-801.222"/>
<polygon fill="green" stroke="green" points="821,-801 817.5,-791 814,-801 821,-801"/>
</g>
<!-- node3 -->
<g id="node4" class="node"><title>node3</title>
<polygon fill="#c1b2ff" stroke="#c1b2ff" points="642.5,-704 494.531,-686 642.5,-668 790.469,-686 642.5,-704"/>
<text text-anchor="middle" x="642.5" y="-682.3" font-family="Times,serif" font-size="14.00"> if &#160;&#160;&#160;tb_rst= &#39;1&#39; then</text>
</g>
<!-- node2&#45;&gt;node3 -->
<g id="edge3" class="edge"><title>node2:s&#45;&gt;node3:n</title>
<path fill="none" stroke="red" d="M817.5,-755C817.5,-677.784 658.522,-775.027 643.618,-714.166"/>
<polygon fill="red" stroke="red" points="647.072,-713.558 642.5,-704 640.114,-714.323 647.072,-713.558"/>
<text text-anchor="middle" x="825" y="-725.8" font-family="Times,serif" font-size="14.00">yes</text>
</g>
<!-- node23 -->
<g id="node14" class="node"><title>node23</title>
<path fill="none" stroke="black" d="M981.5,-36C981.5,-36 889.5,-36 889.5,-36 883.5,-36 877.5,-30 877.5,-24 877.5,-24 877.5,-12 877.5,-12 877.5,-6 883.5,-0 889.5,-0 889.5,-0 981.5,-0 981.5,-0 987.5,-0 993.5,-6 993.5,-12 993.5,-12 993.5,-24 993.5,-24 993.5,-30 987.5,-36 981.5,-36"/>
<polygon fill="white" stroke="none" points="885.5,-10 885.5,-25 985.5,-25 985.5,-10 885.5,-10"/>
<text text-anchor="start" x="885.5" y="-13.8" font-family="Times,serif" font-size="14.00"> end process &#160;</text>
</g>
<!-- node2&#45;&gt;node23 -->
<g id="edge4" class="edge"><title>node2:s&#45;&gt;node23</title>
<path fill="none" stroke="black" d="M817.5,-755C817.5,-739.384 940.5,-702.616 940.5,-687 940.5,-687 940.5,-687 940.5,-234.5 940.5,-174.237 924.715,-158.29 935.5,-99"/>
<text text-anchor="middle" x="949.5" y="-391.8" font-family="Times,serif" font-size="14.00">no</text>
</g>
<!-- node4 -->
<g id="node5" class="node"><title>node4</title>
<polygon fill="lightcyan" stroke="none" points="469.5,-588 469.5,-609 599.5,-609 599.5,-588 469.5,-588"/>
<polygon fill="none" stroke="black" points="469.5,-588 469.5,-609 599.5,-609 599.5,-588 469.5,-588"/>
<text text-anchor="start" x="472.5" y="-594.8" font-family="Times,serif" font-size="14.00"> tb_enable&lt;= &#39;1&#39; </text>
</g>
<!-- node3&#45;&gt;node4 -->
<g id="edge5" class="edge"><title>node3:s&#45;&gt;node4</title>
<path fill="none" stroke="red" d="M642.5,-668C642.5,-648.91 619.974,-659.647 603.5,-650 590.043,-642.12 575.969,-632.252 564.068,-623.369"/>
<polygon fill="red" stroke="red" points="565.908,-620.372 555.826,-617.117 561.678,-625.949 565.908,-620.372"/>
<text text-anchor="middle" x="616" y="-638.8" font-family="Times,serif" font-size="14.00">yes</text>
</g>
<!-- node6 -->
<g id="node6" class="node"><title>node6</title>
<polygon fill="#c1b2ff" stroke="#c1b2ff" points="539.5,-544 260.152,-526 539.5,-508 818.848,-526 539.5,-544"/>
<text text-anchor="middle" x="539.5" y="-522.3" font-family="Times,serif" font-size="14.00"> if &#160;&#160;&#160;tb_enable= &#39;1&#39;and &#160;&#160;tb_rst= &#39;0&#39; then</text>
</g>
<!-- node3&#45;&gt;node6 -->
<g id="edge6" class="edge"><title>node3:s&#45;&gt;node6:n</title>
<path fill="none" stroke="black" d="M642.5,-668C642.5,-621.333 648.407,-609.291 642.5,-563"/>
<text text-anchor="middle" x="654.5" y="-595.3" font-family="Times,serif" font-size="14.00">no</text>
</g>
<!-- node4&#45;&gt;node6 -->
<g id="edge7" class="edge"><title>node4&#45;&gt;node6:n</title>
<path fill="none" stroke="green" d="M604.502,-580.923C625.616,-574.748 643.146,-568.059 642.5,-563"/>
<path fill="none" stroke="green" d="M642.5,-562C637.18,-520.305 557.221,-577.327 541.994,-554.214"/>
<polygon fill="green" stroke="green" points="545.328,-553.119 539.501,-544.271 538.538,-554.822 545.328,-553.119"/>
</g>
<!-- node7 -->
<g id="node7" class="node"><title>node7</title>
<polygon fill="#c1b2ff" stroke="#c1b2ff" points="301.5,-457 91.026,-439 301.5,-421 511.974,-439 301.5,-457"/>
<text text-anchor="middle" x="301.5" y="-435.3" font-family="Times,serif" font-size="14.00"> if &#160;&#160;&#160;pre_delay_count&gt; 0 then</text>
</g>
<!-- node6&#45;&gt;node7 -->
<g id="edge8" class="edge"><title>node6:s&#45;&gt;node7:n</title>
<path fill="none" stroke="red" d="M539.5,-508C539.5,-483.702 347.389,-483.728 308.366,-464.371"/>
<polygon fill="red" stroke="red" points="310.877,-461.931 301.5,-457 305.755,-466.703 310.877,-461.931"/>
<text text-anchor="middle" x="495" y="-478.8" font-family="Times,serif" font-size="14.00">yes</text>
</g>
<!-- node13 -->
<g id="node10" class="node"><title>node13</title>
<polygon fill="#c1b2ff" stroke="#c1b2ff" points="487.5,-297 62.6986,-279 487.5,-261 912.301,-279 487.5,-297"/>
<text text-anchor="middle" x="487.5" y="-275.3" font-family="Times,serif" font-size="14.00"> if &#160;&#160;&#160;end_of_file= &#39;1&#39;or &#160;&#160;post_delay_count&lt; &#160;&#160;dut_delay&#45; 1 then</text>
</g>
<!-- node6&#45;&gt;node13 -->
<g id="edge9" class="edge"><title>node6:s&#45;&gt;node13:n</title>
<path fill="none" stroke="black" d="M539.5,-508C539.5,-422.667 522.679,-399.659 539.5,-316"/>
<text text-anchor="middle" x="542.5" y="-391.8" font-family="Times,serif" font-size="14.00">no</text>
</g>
<!-- node8 -->
<g id="node8" class="node"><title>node8</title>
<polygon fill="lightcyan" stroke="none" points="7.5,-341 7.5,-362 306.5,-362 306.5,-341 7.5,-341"/>
<polygon fill="none" stroke="black" points="7.5,-341 7.5,-362 306.5,-362 306.5,-341 7.5,-341"/>
<text text-anchor="start" x="10.5" y="-347.8" font-family="Times,serif" font-size="14.00"> pre_delay_count:= &#160;&#160;pre_delay_count&#45; 1 </text>
</g>
<!-- node7&#45;&gt;node8 -->
<g id="edge10" class="edge"><title>node7:s&#45;&gt;node8</title>
<path fill="none" stroke="red" d="M301.5,-421C301.5,-415.62 248.486,-391.884 206.569,-373.958"/>
<polygon fill="red" stroke="red" points="207.848,-370.699 197.276,-370.001 205.106,-377.139 207.848,-370.699"/>
<text text-anchor="middle" x="283" y="-391.8" font-family="Times,serif" font-size="14.00">yes</text>
</g>
<!-- node10 -->
<g id="node9" class="node"><title>node10</title>
<polygon fill="lightcyan" stroke="none" points="338.5,-341 338.5,-362 504.5,-362 504.5,-341 338.5,-341"/>
<polygon fill="none" stroke="black" points="338.5,-341 338.5,-362 504.5,-362 504.5,-341 338.5,-341"/>
<text text-anchor="start" x="341.5" y="-347.8" font-family="Times,serif" font-size="14.00"> dut_data_valid&lt;= &#39;1&#39; </text>
</g>
<!-- node7&#45;&gt;node10 -->
<g id="edge11" class="edge"><title>node7:s&#45;&gt;node10</title>
<path fill="none" stroke="black" d="M301.5,-421C301.5,-399.404 316.393,-384.585 335.686,-374.448"/>
<polygon fill="black" stroke="black" points="337.289,-377.561 344.823,-370.112 334.288,-371.237 337.289,-377.561"/>
<text text-anchor="middle" x="323.5" y="-391.8" font-family="Times,serif" font-size="14.00">no</text>
</g>
<!-- node8&#45;&gt;node13 -->
<g id="edge12" class="edge"><title>node8&#45;&gt;node13:n</title>
<path fill="none" stroke="green" d="M313.329,-334.858C316.411,-334.567 319.471,-334.281 322.5,-334 346.591,-331.767 534.731,-339.719 539.5,-316"/>
<path fill="none" stroke="green" d="M539.5,-315C543.402,-295.595 506.927,-311.829 492.876,-305.761"/>
<polygon fill="green" stroke="green" points="495.813,-303.856 487.503,-297.284 489.901,-307.604 495.813,-303.856"/>
</g>
<!-- node10&#45;&gt;node13 -->
<g id="edge13" class="edge"><title>node10&#45;&gt;node13:n</title>
<path fill="none" stroke="green" d="M511.517,-335.424C526.557,-330.445 537.878,-324.065 539.5,-316"/>
</g>
<!-- node14 -->
<g id="node11" class="node"><title>node14</title>
<polygon fill="#c1b2ff" stroke="#c1b2ff" points="576.5,-210 359.658,-192 576.5,-174 793.342,-192 576.5,-210"/>
<text text-anchor="middle" x="576.5" y="-188.3" font-family="Times,serif" font-size="14.00"> if &#160;&#160;&#160;post_delay_count&gt; 0 then</text>
</g>
<!-- node13&#45;&gt;node14 -->
<g id="edge14" class="edge"><title>node13:s&#45;&gt;node14:n</title>
<path fill="none" stroke="red" d="M487.5,-261C487.5,-219.328 561.86,-249.317 574.641,-219.962"/>
<polygon fill="red" stroke="red" points="578.106,-220.472 576.5,-210 571.225,-219.188 578.106,-220.472"/>
<text text-anchor="middle" x="580" y="-231.8" font-family="Times,serif" font-size="14.00">yes</text>
</g>
<!-- node13&#45;&gt;node23 -->
<g id="edge15" class="edge"><title>node13:s&#45;&gt;node23</title>
<path fill="none" stroke="black" d="M487.5,-261C487.5,-260.446 801.991,-210.219 802.5,-210 861.05,-184.817 871.034,-167.666 916.5,-123 926.205,-113.466 933.361,-112.435 935.5,-99"/>
<path fill="none" stroke="black" d="M935.5,-97C938.841,-78.6347 924.237,-69.8856 935.5,-55"/>
<text text-anchor="middle" x="906.5" y="-144.8" font-family="Times,serif" font-size="14.00">no</text>
</g>
<!-- node15 -->
<g id="node12" class="node"><title>node15</title>
<polygon fill="lightcyan" stroke="none" points="420.5,-87 420.5,-108 733.5,-108 733.5,-87 420.5,-87"/>
<polygon fill="none" stroke="black" points="420.5,-87 420.5,-108 733.5,-108 733.5,-87 420.5,-87"/>
<text text-anchor="start" x="423.5" y="-93.8" font-family="Times,serif" font-size="14.00"> post_delay_count:= &#160;&#160;post_delay_count&#45; 1 </text>
</g>
<!-- node14&#45;&gt;node15 -->
<g id="edge16" class="edge"><title>node14:s&#45;&gt;node15</title>
<path fill="none" stroke="red" d="M576.5,-174C576.5,-158.229 576.5,-140.591 576.5,-126.385"/>
<polygon fill="red" stroke="red" points="580,-126.277 576.5,-116.278 573,-126.278 580,-126.277"/>
<text text-anchor="middle" x="589" y="-144.8" font-family="Times,serif" font-size="14.00">yes</text>
</g>
<!-- node17 -->
<g id="node13" class="node"><title>node17</title>
<polygon fill="lightcyan" stroke="none" points="764.5,-80 764.5,-116 900.5,-116 900.5,-80 764.5,-80"/>
<polygon fill="none" stroke="black" points="764.5,-80 764.5,-116 900.5,-116 900.5,-80 764.5,-80"/>
<text text-anchor="start" x="767.5" y="-101.8" font-family="Times,serif" font-size="14.00"> tb_enable&lt;= &#39;0&#39;</text>
<text text-anchor="start" x="767.5" y="-86.8" font-family="Times,serif" font-size="14.00">tb_done&lt;= &#39;1&#39; &#160;&#160;&#160;. </text>
</g>
<!-- node14&#45;&gt;node17 -->
<g id="edge17" class="edge"><title>node14:s&#45;&gt;node17</title>
<path fill="none" stroke="black" d="M576.5,-174C576.5,-172.863 673.021,-144.844 747.529,-123.385"/>
<polygon fill="black" stroke="black" points="748.78,-126.668 757.421,-120.538 746.843,-119.941 748.78,-126.668"/>
<text text-anchor="middle" x="691.5" y="-144.8" font-family="Times,serif" font-size="14.00">no</text>
</g>
<!-- node15&#45;&gt;node23 -->
<g id="edge18" class="edge"><title>node15&#45;&gt;node23</title>
<path fill="none" stroke="green" d="M693.454,-79.9977C711.858,-77.5195 730.684,-75.0995 748.5,-73 769.23,-70.5571 922.905,-71.6457 935.5,-55"/>
<path fill="none" stroke="green" d="M935.5,-54C937.287,-51.6378 938.394,-48.906 939.014,-46.0311"/>
<polygon fill="green" stroke="green" points="942.51,-46.2023 939.533,-36.0344 935.52,-45.8397 942.51,-46.2023"/>
</g>
<!-- node17&#45;&gt;node23 -->
<g id="edge19" class="edge"><title>node17&#45;&gt;node23</title>
<path fill="none" stroke="green" d="M907.597,-77.7846C918.351,-72.0535 928.217,-64.6249 935.5,-55"/>
</g>
</g>
</svg>
