<?xml version="1.0" encoding="UTF-8" standalone="no"?>
<?xml-stylesheet href="doxygen.css" type="text/css"?>
<!DOCTYPE svg PUBLIC "-//W3C//DTD SVG 1.1//EN"
 "http://www.w3.org/Graphics/SVG/1.1/DTD/svg11.dtd">
<!-- Generated by graphviz version 2.38.0 (20140413.2041)
 -->
<!-- Title: G Pages: 1 -->
<svg width="830pt" height="959pt"
 viewBox="0.00 0.00 830.12 959.00" xmlns="http://www.w3.org/2000/svg" xmlns:xlink="http://www.w3.org/1999/xlink">
<g id="graph0" class="graph" transform="scale(1 1) rotate(0) translate(4 955)">
<title>G</title>
<polygon fill="white" stroke="none" points="-4,4 -4,-955 826.125,-955 826.125,4 -4,4"/>
<!-- node22 -->
<g id="node1" class="node"><title>node22</title>
<path fill="none" stroke="black" d="M791,-951C791,-951 515,-951 515,-951 509,-951 503,-945 503,-939 503,-939 503,-927 503,-927 503,-921 509,-915 515,-915 515,-915 791,-915 791,-915 797,-915 803,-921 803,-927 803,-927 803,-939 803,-939 803,-945 797,-951 791,-951"/>
<polygon fill="white" stroke="none" points="511,-925 511,-940 795,-940 795,-925 511,-925"/>
<text text-anchor="start" x="511" y="-928.8" font-family="Times,serif" font-size="14.00"> release_process:process( tb_clk,tb_rst,end_of_file) </text>
</g>
<!-- node0 -->
<g id="node2" class="node"><title>node0</title>
<polygon fill="lightyellow" stroke="none" points="505,-835 505,-871 802,-871 802,-835 505,-835"/>
<polygon fill="none" stroke="black" points="505,-835 505,-871 802,-871 802,-835 505,-835"/>
<text text-anchor="start" x="508" y="-856.8" font-family="Times,serif" font-size="14.00"> &#160;variable pre_delay_count:integer &#160;:= &#160;&#160;dut_delay</text>
<text text-anchor="start" x="508" y="-841.8" font-family="Times,serif" font-size="14.00"> variable post_delay_count:integer &#160;:= &#160;&#160;dut_delay&#45; 1 </text>
</g>
<!-- node22&#45;&gt;node0 -->
<g id="edge1" class="edge"><title>node22&#45;&gt;node0</title>
<path fill="none" stroke="green" d="M653,-914.689C653,-906.863 653,-897.328 653,-888.156"/>
<polygon fill="green" stroke="green" points="656.5,-888.066 653,-878.066 649.5,-888.066 656.5,-888.066"/>
</g>
<!-- node2 -->
<g id="node3" class="node"><title>node2</title>
<polygon fill="#c1b2ff" stroke="#c1b2ff" points="653,-791 483.75,-773 653,-755 822.25,-773 653,-791"/>
<text text-anchor="middle" x="653" y="-769.3" font-family="Times,serif" font-size="14.00"> if &#160;&#160;&#160;rising_edge(tb_clk &#160;) then</text>
</g>
<!-- node0&#45;&gt;node2 -->
<g id="edge2" class="edge"><title>node0&#45;&gt;node2:n</title>
<path fill="none" stroke="green" d="M653,-827.953C653,-819.795 653,-810.414 653,-801.222"/>
<polygon fill="green" stroke="green" points="656.5,-801 653,-791 649.5,-801 656.5,-801"/>
</g>
<!-- node3 -->
<g id="node4" class="node"><title>node3</title>
<polygon fill="#c1b2ff" stroke="#c1b2ff" points="514,-704 399.211,-686 514,-668 628.789,-686 514,-704"/>
<text text-anchor="middle" x="514" y="-682.3" font-family="Times,serif" font-size="14.00"> if &#160;&#160;&#160;tb_rst= &#39;1&#39; then</text>
</g>
<!-- node2&#45;&gt;node3 -->
<g id="edge3" class="edge"><title>node2:s&#45;&gt;node3:n</title>
<path fill="none" stroke="red" d="M653,-755C653,-693.051 529.812,-760.861 515.376,-714.118"/>
<polygon fill="red" stroke="red" points="518.815,-713.437 514,-704 511.879,-714.38 518.815,-713.437"/>
<text text-anchor="middle" x="654.5" y="-725.8" font-family="Times,serif" font-size="14.00">yes</text>
</g>
<!-- node23 -->
<g id="node14" class="node"><title>node23</title>
<path fill="none" stroke="black" d="M777,-36C777,-36 709,-36 709,-36 703,-36 697,-30 697,-24 697,-24 697,-12 697,-12 697,-6 703,-0 709,-0 709,-0 777,-0 777,-0 783,-0 789,-6 789,-12 789,-12 789,-24 789,-24 789,-30 783,-36 777,-36"/>
<polygon fill="white" stroke="none" points="705,-10 705,-25 781,-25 781,-10 705,-10"/>
<text text-anchor="start" x="705" y="-13.8" font-family="Times,serif" font-size="14.00"> end process &#160;</text>
</g>
<!-- node2&#45;&gt;node23 -->
<g id="edge4" class="edge"><title>node2:s&#45;&gt;node23</title>
<path fill="none" stroke="black" d="M653,-755C653,-728.31 752,-713.69 752,-687 752,-687 752,-687 752,-234.5 752,-174.145 732.718,-158.473 743,-99"/>
<text text-anchor="middle" x="759" y="-391.8" font-family="Times,serif" font-size="14.00">no</text>
</g>
<!-- node4 -->
<g id="node5" class="node"><title>node4</title>
<polygon fill="lightcyan" stroke="none" points="373,-588 373,-609 471,-609 471,-588 373,-588"/>
<polygon fill="none" stroke="black" points="373,-588 373,-609 471,-609 471,-588 373,-588"/>
<text text-anchor="start" x="376" y="-594.8" font-family="Times,serif" font-size="14.00"> tb_enable&lt;= &#39;1&#39; </text>
</g>
<!-- node3&#45;&gt;node4 -->
<g id="edge5" class="edge"><title>node3:s&#45;&gt;node4</title>
<path fill="none" stroke="red" d="M514,-668C514,-651.293 494.777,-659.45 481,-650 469.555,-642.15 457.733,-632.487 447.705,-623.756"/>
<polygon fill="red" stroke="red" points="449.894,-621.019 440.088,-617.006 445.251,-626.258 449.894,-621.019"/>
<text text-anchor="middle" x="490.5" y="-638.8" font-family="Times,serif" font-size="14.00">yes</text>
</g>
<!-- node6 -->
<g id="node6" class="node"><title>node6</title>
<polygon fill="#c1b2ff" stroke="#c1b2ff" points="432,-544 219.849,-526 432,-508 644.151,-526 432,-544"/>
<text text-anchor="middle" x="432" y="-522.3" font-family="Times,serif" font-size="14.00"> if &#160;&#160;&#160;tb_enable= &#39;1&#39;and &#160;&#160;tb_rst= &#39;0&#39; then</text>
</g>
<!-- node3&#45;&gt;node6 -->
<g id="edge6" class="edge"><title>node3:s&#45;&gt;node6:n</title>
<path fill="none" stroke="black" d="M514,-668C514,-621.333 519.864,-609.297 514,-563"/>
<text text-anchor="middle" x="524" y="-595.3" font-family="Times,serif" font-size="14.00">no</text>
</g>
<!-- node4&#45;&gt;node6 -->
<g id="edge7" class="edge"><title>node4&#45;&gt;node6:n</title>
<path fill="none" stroke="green" d="M478.215,-581.382C497.687,-574.78 514.59,-567.662 514,-563"/>
<path fill="none" stroke="green" d="M514,-562C509.914,-529.737 450.659,-568.384 435.507,-554.138"/>
<polygon fill="green" stroke="green" points="438.691,-552.65 432.004,-544.433 432.107,-555.027 438.691,-552.65"/>
</g>
<!-- node7 -->
<g id="node7" class="node"><title>node7</title>
<polygon fill="#c1b2ff" stroke="#c1b2ff" points="239,-457 74.4417,-439 239,-421 403.558,-439 239,-457"/>
<text text-anchor="middle" x="239" y="-435.3" font-family="Times,serif" font-size="14.00"> if &#160;&#160;&#160;pre_delay_count&gt; 0 then</text>
</g>
<!-- node6&#45;&gt;node7 -->
<g id="edge8" class="edge"><title>node6:s&#45;&gt;node7:n</title>
<path fill="none" stroke="red" d="M432,-508C432,-488.419 281.584,-480.95 246.33,-464.208"/>
<polygon fill="red" stroke="red" points="248.584,-461.516 239,-457 243.677,-466.507 248.584,-461.516"/>
<text text-anchor="middle" x="390.5" y="-478.8" font-family="Times,serif" font-size="14.00">yes</text>
</g>
<!-- node13 -->
<g id="node10" class="node"><title>node13</title>
<polygon fill="#c1b2ff" stroke="#c1b2ff" points="391,-297 58.03,-279 391,-261 723.97,-279 391,-297"/>
<text text-anchor="middle" x="391" y="-275.3" font-family="Times,serif" font-size="14.00"> if &#160;&#160;&#160;end_of_file= &#39;1&#39;or &#160;&#160;post_delay_count&lt; &#160;&#160;dut_delay&#45; 1 then</text>
</g>
<!-- node6&#45;&gt;node13 -->
<g id="edge9" class="edge"><title>node6:s&#45;&gt;node13:n</title>
<path fill="none" stroke="black" d="M432,-508C432,-422.667 412.356,-399.041 432,-316"/>
<text text-anchor="middle" x="431" y="-391.8" font-family="Times,serif" font-size="14.00">no</text>
</g>
<!-- node8 -->
<g id="node8" class="node"><title>node8</title>
<polygon fill="lightcyan" stroke="none" points="7,-341 7,-362 239,-362 239,-341 7,-341"/>
<polygon fill="none" stroke="black" points="7,-341 7,-362 239,-362 239,-341 7,-341"/>
<text text-anchor="start" x="10" y="-347.8" font-family="Times,serif" font-size="14.00"> pre_delay_count:= &#160;&#160;pre_delay_count&#45; 1 </text>
</g>
<!-- node7&#45;&gt;node8 -->
<g id="edge10" class="edge"><title>node7:s&#45;&gt;node8</title>
<path fill="none" stroke="red" d="M239,-421C239,-412.385 200.428,-391.094 167.768,-374.611"/>
<polygon fill="red" stroke="red" points="169.26,-371.444 158.75,-370.104 166.131,-377.706 169.26,-371.444"/>
<text text-anchor="middle" x="226.5" y="-391.8" font-family="Times,serif" font-size="14.00">yes</text>
</g>
<!-- node10 -->
<g id="node9" class="node"><title>node10</title>
<polygon fill="lightcyan" stroke="none" points="271,-341 271,-362 397,-362 397,-341 271,-341"/>
<polygon fill="none" stroke="black" points="271,-341 271,-362 397,-362 397,-341 271,-341"/>
<text text-anchor="start" x="274" y="-347.8" font-family="Times,serif" font-size="14.00"> dut_data_valid&lt;= &#39;1&#39; </text>
</g>
<!-- node7&#45;&gt;node10 -->
<g id="edge11" class="edge"><title>node7:s&#45;&gt;node10</title>
<path fill="none" stroke="black" d="M239,-421C239,-400.432 253.906,-385.489 271.91,-374.942"/>
<polygon fill="black" stroke="black" points="273.776,-377.913 280.945,-370.112 270.476,-371.74 273.776,-377.913"/>
<text text-anchor="middle" x="260" y="-391.8" font-family="Times,serif" font-size="14.00">no</text>
</g>
<!-- node8&#45;&gt;node13 -->
<g id="edge12" class="edge"><title>node8&#45;&gt;node13:n</title>
<path fill="none" stroke="green" d="M246.299,-335.015C249.227,-334.669 252.131,-334.331 255,-334 274.638,-331.737 427.449,-335.237 432,-316"/>
<path fill="none" stroke="green" d="M432,-315C435.48,-300.288 410.014,-309.025 397.57,-305.351"/>
<polygon fill="green" stroke="green" points="400.093,-302.91 391.008,-297.459 394.711,-307.386 400.093,-302.91"/>
</g>
<!-- node10&#45;&gt;node13 -->
<g id="edge13" class="edge"><title>node10&#45;&gt;node13:n</title>
<path fill="none" stroke="green" d="M404.141,-335.106C418.7,-329.916 430.222,-323.516 432,-316"/>
</g>
<!-- node14 -->
<g id="node11" class="node"><title>node14</title>
<polygon fill="#c1b2ff" stroke="#c1b2ff" points="450,-210 279.912,-192 450,-174 620.088,-192 450,-210"/>
<text text-anchor="middle" x="450" y="-188.3" font-family="Times,serif" font-size="14.00"> if &#160;&#160;&#160;post_delay_count&gt; 0 then</text>
</g>
<!-- node13&#45;&gt;node14 -->
<g id="edge14" class="edge"><title>node13:s&#45;&gt;node14:n</title>
<path fill="none" stroke="red" d="M391,-261C391,-230.265 437.39,-241.19 447.9,-219.894"/>
<polygon fill="red" stroke="red" points="451.347,-220.509 450,-210 444.5,-219.055 451.347,-220.509"/>
<text text-anchor="middle" x="450.5" y="-231.8" font-family="Times,serif" font-size="14.00">yes</text>
</g>
<!-- node13&#45;&gt;node23 -->
<g id="edge15" class="edge"><title>node13:s&#45;&gt;node23</title>
<path fill="none" stroke="black" d="M391,-261C391,-257.619 625.996,-211.55 629,-210 644.712,-201.894 740.536,-116.507 743,-99"/>
<path fill="none" stroke="black" d="M743,-97C746.18,-78.6062 732.154,-70.1924 743,-55"/>
<text text-anchor="middle" x="714" y="-144.8" font-family="Times,serif" font-size="14.00">no</text>
</g>
<!-- node15 -->
<g id="node12" class="node"><title>node15</title>
<polygon fill="lightcyan" stroke="none" points="329,-87 329,-108 572,-108 572,-87 329,-87"/>
<polygon fill="none" stroke="black" points="329,-87 329,-108 572,-108 572,-87 329,-87"/>
<text text-anchor="start" x="332" y="-93.8" font-family="Times,serif" font-size="14.00"> post_delay_count:= &#160;&#160;post_delay_count&#45; 1 </text>
</g>
<!-- node14&#45;&gt;node15 -->
<g id="edge16" class="edge"><title>node14:s&#45;&gt;node15</title>
<path fill="none" stroke="red" d="M450,-174C450,-158.229 450,-140.591 450,-126.385"/>
<polygon fill="red" stroke="red" points="453.5,-126.277 450,-116.278 446.5,-126.278 453.5,-126.277"/>
<text text-anchor="middle" x="459.5" y="-144.8" font-family="Times,serif" font-size="14.00">yes</text>
</g>
<!-- node17 -->
<g id="node13" class="node"><title>node17</title>
<polygon fill="lightcyan" stroke="none" points="604,-80 604,-116 708,-116 708,-80 604,-80"/>
<polygon fill="none" stroke="black" points="604,-80 604,-116 708,-116 708,-80 604,-80"/>
<text text-anchor="start" x="607" y="-101.8" font-family="Times,serif" font-size="14.00"> tb_enable&lt;= &#39;0&#39;</text>
<text text-anchor="start" x="607" y="-86.8" font-family="Times,serif" font-size="14.00">tb_done&lt;= &#39;1&#39; &#160;&#160;&#160;. </text>
</g>
<!-- node14&#45;&gt;node17 -->
<g id="edge17" class="edge"><title>node14:s&#45;&gt;node17</title>
<path fill="none" stroke="black" d="M450,-174C450,-172.132 527.574,-144.313 587.515,-123.097"/>
<polygon fill="black" stroke="black" points="588.708,-126.388 596.969,-119.754 586.374,-119.788 588.708,-126.388"/>
<text text-anchor="middle" x="542" y="-144.8" font-family="Times,serif" font-size="14.00">no</text>
</g>
<!-- node15&#45;&gt;node23 -->
<g id="edge18" class="edge"><title>node15&#45;&gt;node23</title>
<path fill="none" stroke="green" d="M543.791,-79.9543C558.562,-77.4819 573.68,-75.075 588,-73 622.318,-68.0273 722.852,-83.222 743,-55"/>
<path fill="none" stroke="green" d="M743,-54C744.632,-51.7143 745.674,-49.113 746.287,-46.3847"/>
<polygon fill="green" stroke="green" points="749.788,-46.4787 746.91,-36.2824 742.801,-46.0482 749.788,-46.4787"/>
</g>
<!-- node17&#45;&gt;node23 -->
<g id="edge19" class="edge"><title>node17&#45;&gt;node23</title>
<path fill="none" stroke="green" d="M715.351,-78.3301C726.032,-72.4505 735.983,-64.8284 743,-55"/>
</g>
</g>
</svg>
