<?xml version="1.0" encoding="UTF-8" standalone="no"?>
<?xml-stylesheet href="doxygen.css" type="text/css"?>
<!DOCTYPE svg PUBLIC "-//W3C//DTD SVG 1.1//EN"
 "http://www.w3.org/Graphics/SVG/1.1/DTD/svg11.dtd">
<!-- Generated by graphviz version 2.38.0 (20140413.2041)
 -->
<!-- Title: G Pages: 1 -->
<svg width="1207pt" height="2796pt"
 viewBox="0.00 0.00 1207.04 2796.00" xmlns="http://www.w3.org/2000/svg" xmlns:xlink="http://www.w3.org/1999/xlink">
<g id="graph0" class="graph" transform="scale(1 1) rotate(0) translate(4 2792)">
<title>G</title>
<polygon fill="white" stroke="none" points="-4,4 -4,-2792 1203.04,-2792 1203.04,4 -4,4"/>
<!-- node101 -->
<g id="node1" class="node"><title>node101</title>
<path fill="none" stroke="black" d="M707.5,-2788C707.5,-2788 525.5,-2788 525.5,-2788 519.5,-2788 513.5,-2782 513.5,-2776 513.5,-2776 513.5,-2764 513.5,-2764 513.5,-2758 519.5,-2752 525.5,-2752 525.5,-2752 707.5,-2752 707.5,-2752 713.5,-2752 719.5,-2758 719.5,-2764 719.5,-2764 719.5,-2776 719.5,-2776 719.5,-2782 713.5,-2788 707.5,-2788"/>
<polygon fill="white" stroke="none" points="521.5,-2762 521.5,-2777 711.5,-2777 711.5,-2762 521.5,-2762"/>
<text text-anchor="start" x="521.5" y="-2765.8" font-family="Times,serif" font-size="14.00"> rgb2hsv:process( clk,rst) </text>
</g>
<!-- node0 -->
<g id="node2" class="node"><title>node0</title>
<polygon fill="lightyellow" stroke="none" points="327.5,-2626.5 327.5,-2707.5 905.5,-2707.5 905.5,-2626.5 327.5,-2626.5"/>
<polygon fill="none" stroke="black" points="327.5,-2626.5 327.5,-2707.5 905.5,-2707.5 905.5,-2626.5 327.5,-2626.5"/>
<text text-anchor="start" x="330.5" y="-2693.3" font-family="Times,serif" font-size="14.00"> &#160;variable red_i_int:integer &#160;&#160;range &#160;0 to &#160;2** &#160;&#160;wordsize:= 0</text>
<text text-anchor="start" x="330.5" y="-2678.3" font-family="Times,serif" font-size="14.00"> variable green_i_int:integer &#160;&#160;range &#160;0 to &#160;2** &#160;&#160;wordsize:= 0</text>
<text text-anchor="start" x="330.5" y="-2663.3" font-family="Times,serif" font-size="14.00"> variable blue_i_int:integer &#160;&#160;range &#160;0 to &#160;2** &#160;&#160;wordsize:= 0</text>
<text text-anchor="start" x="330.5" y="-2648.3" font-family="Times,serif" font-size="14.00"> variable sat_out:std_logic_vector( &#160;&#160;wordsize&#45; 1 downto &#160;0) &#160;:=( others =&gt; &#39;0&#39;)</text>
<text text-anchor="start" x="330.5" y="-2633.3" font-family="Times,serif" font-size="14.00"> variable mux_out:std_logic_vector( &#160;&#160;wordsize&#45; 1 downto &#160;0) &#160;:=( others =&gt; &#39;0&#39;) </text>
</g>
<!-- node101&#45;&gt;node0 -->
<g id="edge1" class="edge"><title>node101&#45;&gt;node0</title>
<path fill="none" stroke="green" d="M616.5,-2751.95C616.5,-2744.39 616.5,-2735.01 616.5,-2725.29"/>
<polygon fill="green" stroke="green" points="620,-2725.11 616.5,-2715.11 613,-2725.11 620,-2725.11"/>
</g>
<!-- node2 -->
<g id="node3" class="node"><title>node2</title>
<polygon fill="#c1b2ff" stroke="#c1b2ff" points="616.5,-2583 488.974,-2565 616.5,-2547 744.026,-2565 616.5,-2583"/>
<text text-anchor="middle" x="616.5" y="-2561.3" font-family="Times,serif" font-size="14.00"> if &#160;&#160;&#160;rst= &#39;1&#39; then</text>
</g>
<!-- node0&#45;&gt;node2 -->
<g id="edge2" class="edge"><title>node0&#45;&gt;node2:n</title>
<path fill="none" stroke="green" d="M616.5,-2619.69C616.5,-2611.09 616.5,-2602.04 616.5,-2593.21"/>
<polygon fill="green" stroke="green" points="620,-2593 616.5,-2583 613,-2593 620,-2593"/>
</g>
<!-- node3 -->
<g id="node4" class="node"><title>node3</title>
<polygon fill="lightcyan" stroke="none" points="7.5,-2083.5 7.5,-2434.5 244.5,-2434.5 244.5,-2083.5 7.5,-2083.5"/>
<polygon fill="none" stroke="black" points="7.5,-2083.5 7.5,-2434.5 244.5,-2434.5 244.5,-2083.5 7.5,-2083.5"/>
<text text-anchor="start" x="10.5" y="-2420.3" font-family="Times,serif" font-size="14.00"> rgdiff&lt;= 0</text>
<text text-anchor="start" x="10.5" y="-2405.3" font-family="Times,serif" font-size="14.00">brdiff&lt;= 0</text>
<text text-anchor="start" x="10.5" y="-2390.3" font-family="Times,serif" font-size="14.00">gbdiff&lt;= 0</text>
<text text-anchor="start" x="10.5" y="-2375.3" font-family="Times,serif" font-size="14.00">c_rgdiff&lt;= 0</text>
<text text-anchor="start" x="10.5" y="-2360.3" font-family="Times,serif" font-size="14.00">c_brdiff&lt;= 0</text>
<text text-anchor="start" x="10.5" y="-2345.3" font-family="Times,serif" font-size="14.00">c_gbdiff&lt;= 0</text>
<text text-anchor="start" x="10.5" y="-2330.3" font-family="Times,serif" font-size="14.00">c_rgdiff_d0&lt;= 0</text>
<text text-anchor="start" x="10.5" y="-2315.3" font-family="Times,serif" font-size="14.00">c_brdiff_d0&lt;= 0</text>
<text text-anchor="start" x="10.5" y="-2300.3" font-family="Times,serif" font-size="14.00">c_gbdiff_d0&lt;= 0</text>
<text text-anchor="start" x="10.5" y="-2285.3" font-family="Times,serif" font-size="14.00">c_rgdiff_div_max&lt;= 0</text>
<text text-anchor="start" x="10.5" y="-2270.3" font-family="Times,serif" font-size="14.00">c_brdiff_div_max&lt;= 0</text>
<text text-anchor="start" x="10.5" y="-2255.3" font-family="Times,serif" font-size="14.00">c_gbdiff_div_max&lt;= 0</text>
<text text-anchor="start" x="10.5" y="-2240.3" font-family="Times,serif" font-size="14.00">rg_mux_in&lt;= 0</text>
<text text-anchor="start" x="10.5" y="-2225.3" font-family="Times,serif" font-size="14.00">br_mux_in&lt;= 0</text>
<text text-anchor="start" x="10.5" y="-2210.3" font-family="Times,serif" font-size="14.00">gb_mux_in&lt;= 0</text>
<text text-anchor="start" x="10.5" y="-2195.3" font-family="Times,serif" font-size="14.00">mux_select&lt;=( others =&gt; 0)</text>
<text text-anchor="start" x="10.5" y="-2180.3" font-family="Times,serif" font-size="14.00">r_versus_g_max&lt;= 0</text>
<text text-anchor="start" x="10.5" y="-2165.3" font-family="Times,serif" font-size="14.00">r_versus_g_min&lt;= 0</text>
<text text-anchor="start" x="10.5" y="-2150.3" font-family="Times,serif" font-size="14.00">b_versus_max&lt;= 0</text>
<text text-anchor="start" x="10.5" y="-2135.3" font-family="Times,serif" font-size="14.00">b_versus_min&lt;= 0</text>
<text text-anchor="start" x="10.5" y="-2120.3" font-family="Times,serif" font-size="14.00">range_times_255&lt;= 0</text>
<text text-anchor="start" x="10.5" y="-2105.3" font-family="Times,serif" font-size="14.00">range_255_div_by_max&lt;= 0</text>
<text text-anchor="start" x="10.5" y="-2090.3" font-family="Times,serif" font-size="14.00">comp_max&lt;=( others =&gt; 0) &#160;&#160;&#160;. </text>
</g>
<!-- node2&#45;&gt;node3 -->
<g id="edge3" class="edge"><title>node2:s&#45;&gt;node3</title>
<path fill="none" stroke="red" d="M616.5,-2547C616.5,-2536.65 405.703,-2416.86 260.348,-2335.49"/>
<polygon fill="red" stroke="red" points="261.743,-2332.26 251.307,-2330.44 258.325,-2338.37 261.743,-2332.26"/>
<text text-anchor="middle" x="602" y="-2517.8" font-family="Times,serif" font-size="14.00">yes</text>
</g>
<!-- node26 -->
<g id="node5" class="node"><title>node26</title>
<polygon fill="#c1b2ff" stroke="#c1b2ff" points="933.5,-2496 722.188,-2478 933.5,-2460 1144.81,-2478 933.5,-2496"/>
<text text-anchor="middle" x="933.5" y="-2474.3" font-family="Times,serif" font-size="14.00"> elsif &#160;&#160;&#160;rising_edge(clk &#160;) then</text>
</g>
<!-- node2&#45;&gt;node26 -->
<g id="edge4" class="edge"><title>node2:s&#45;&gt;node26</title>
<path fill="none" stroke="black" d="M616.5,-2547C616.5,-2509.54 702.178,-2492.65 784.449,-2485.07"/>
<polygon fill="black" stroke="black" points="784.804,-2488.55 794.459,-2484.19 784.191,-2481.58 784.804,-2488.55"/>
<text text-anchor="middle" x="653.5" y="-2517.8" font-family="Times,serif" font-size="14.00">no</text>
</g>
<!-- node102 -->
<g id="node34" class="node"><title>node102</title>
<path fill="none" stroke="black" d="M851.5,-36C851.5,-36 759.5,-36 759.5,-36 753.5,-36 747.5,-30 747.5,-24 747.5,-24 747.5,-12 747.5,-12 747.5,-6 753.5,-0 759.5,-0 759.5,-0 851.5,-0 851.5,-0 857.5,-0 863.5,-6 863.5,-12 863.5,-12 863.5,-24 863.5,-24 863.5,-30 857.5,-36 851.5,-36"/>
<polygon fill="white" stroke="none" points="755.5,-10 755.5,-25 855.5,-25 855.5,-10 755.5,-10"/>
<text text-anchor="start" x="755.5" y="-13.8" font-family="Times,serif" font-size="14.00"> end process &#160;</text>
</g>
<!-- node3&#45;&gt;node102 -->
<g id="edge5" class="edge"><title>node3&#45;&gt;node102</title>
<path fill="none" stroke="green" d="M21.4681,-2076.81C13.5148,-2051.25 8.5,-2024.73 8.5,-1998.5 8.5,-1998.5 8.5,-1998.5 8.5,-235.5 8.5,26.8914 473.942,-75.282 490.5,-73 507.864,-70.6068 800.197,-71.7072 805.5,-55"/>
<path fill="none" stroke="green" d="M805.5,-54C806.714,-51.5285 807.498,-48.8354 807.966,-46.0766"/>
<polygon fill="green" stroke="green" points="811.462,-46.242 808.484,-36.0744 804.471,-45.8801 811.462,-46.242"/>
</g>
<!-- node27 -->
<g id="node6" class="node"><title>node27</title>
<polygon fill="#c1b2ff" stroke="#c1b2ff" points="933.5,-2059 780.84,-2041 933.5,-2023 1086.16,-2041 933.5,-2059"/>
<text text-anchor="middle" x="933.5" y="-2037.3" font-family="Times,serif" font-size="14.00"> if &#160;&#160;&#160;enable= &#39;1&#39; then</text>
</g>
<!-- node26&#45;&gt;node27 -->
<g id="edge6" class="edge"><title>node26&#45;&gt;node27:n</title>
<path fill="none" stroke="red" d="M933.5,-2459.88C933.5,-2404.15 933.5,-2222.69 933.5,-2069.08"/>
<polygon fill="red" stroke="red" points="937,-2069 933.5,-2059 930,-2069 937,-2069"/>
<text text-anchor="middle" x="946" y="-2255.8" font-family="Times,serif" font-size="14.00">yes</text>
</g>
<!-- node26&#45;&gt;node102 -->
<g id="edge7" class="edge"><title>node26&#45;&gt;node102</title>
<path fill="none" stroke="black" d="M949.927,-2461.36C1003.92,-2408.16 1172.5,-2227.26 1172.5,-2042 1172.5,-2042 1172.5,-2042 1172.5,-1109 1172.5,-1034.78 1160.02,-1015.16 1172.5,-942"/>
<text text-anchor="middle" x="1177.5" y="-980.8" font-family="Times,serif" font-size="14.00">no</text>
</g>
<!-- node28 -->
<g id="node7" class="node"><title>node28</title>
<polygon fill="lightcyan" stroke="none" points="580.5,-1913.5 580.5,-1964.5 976.5,-1964.5 976.5,-1913.5 580.5,-1913.5"/>
<polygon fill="none" stroke="black" points="580.5,-1913.5 580.5,-1964.5 976.5,-1964.5 976.5,-1913.5 580.5,-1913.5"/>
<text text-anchor="start" x="583.5" y="-1950.3" font-family="Times,serif" font-size="14.00"> red_i_int:= &#160;&#160;to_integer(unsigned(pixel_red_i &#160;) &#160;)</text>
<text text-anchor="start" x="583.5" y="-1935.3" font-family="Times,serif" font-size="14.00">green_i_int:= &#160;&#160;to_integer(unsigned(pixel_green_i &#160;) &#160;)</text>
<text text-anchor="start" x="583.5" y="-1920.3" font-family="Times,serif" font-size="14.00">blue_i_int:= &#160;&#160;to_integer(unsigned(pixel_blue_i &#160;) &#160;) &#160;&#160;&#160;. </text>
</g>
<!-- node27&#45;&gt;node28 -->
<g id="edge8" class="edge"><title>node27:s&#45;&gt;node28</title>
<path fill="none" stroke="red" d="M933.5,-2023C933.5,-2003.97 924.28,-1989.31 910.337,-1978.03"/>
<polygon fill="red" stroke="red" points="912.289,-1975.12 902.133,-1972.1 908.189,-1980.79 912.289,-1975.12"/>
<text text-anchor="middle" x="942" y="-1993.8" font-family="Times,serif" font-size="14.00">yes</text>
</g>
<!-- node96 -->
<g id="node33" class="node"><title>node96</title>
<polygon fill="lightcyan" stroke="none" points="921.5,-1830.5 921.5,-1881.5 1150.5,-1881.5 1150.5,-1830.5 921.5,-1830.5"/>
<polygon fill="none" stroke="black" points="921.5,-1830.5 921.5,-1881.5 1150.5,-1881.5 1150.5,-1830.5 921.5,-1830.5"/>
<text text-anchor="start" x="924.5" y="-1867.3" font-family="Times,serif" font-size="14.00"> pixel_hue_o&lt;=( others =&gt; &#39;0&#39;)</text>
<text text-anchor="start" x="924.5" y="-1852.3" font-family="Times,serif" font-size="14.00">pixel_sat_o&lt;=( others =&gt; &#39;0&#39;)</text>
<text text-anchor="start" x="927" y="-1837.3" font-family="Times,serif" font-size="14.00">pixel_val_o&lt;=( others =&gt; &#39;0&#39;) </text>
</g>
<!-- node27&#45;&gt;node96 -->
<g id="edge9" class="edge"><title>node27:s&#45;&gt;node96</title>
<path fill="none" stroke="black" d="M933.5,-2023C933.5,-2009.31 948.004,-2013.79 958.5,-2005 974.644,-1991.48 980.963,-1989.62 992.5,-1972 1007.09,-1949.72 1017.71,-1921.78 1024.74,-1899.08"/>
<polygon fill="black" stroke="black" points="1028.13,-1899.97 1027.63,-1889.38 1021.42,-1897.97 1028.13,-1899.97"/>
<text text-anchor="middle" x="986.5" y="-1993.8" font-family="Times,serif" font-size="14.00">no</text>
</g>
<!-- node31 -->
<g id="node8" class="node"><title>node31</title>
<polygon fill="#c1b2ff" stroke="#c1b2ff" points="778.5,-1806 534.008,-1788 778.5,-1770 1022.99,-1788 778.5,-1806"/>
<text text-anchor="middle" x="778.5" y="-1784.3" font-family="Times,serif" font-size="14.00"> if &#160;&#160;&#160;red_i_int&gt;= &#160;&#160;green_i_int then</text>
</g>
<!-- node28&#45;&gt;node31 -->
<g id="edge10" class="edge"><title>node28&#45;&gt;node31:n</title>
<path fill="none" stroke="green" d="M778.5,-1906.91C778.5,-1882.69 778.5,-1848.11 778.5,-1816.24"/>
<polygon fill="green" stroke="green" points="782,-1816 778.5,-1806 775,-1816 782,-1816"/>
</g>
<!-- node32 -->
<g id="node9" class="node"><title>node32</title>
<polygon fill="lightcyan" stroke="none" points="347.5,-1660.5 347.5,-1711.5 613.5,-1711.5 613.5,-1660.5 347.5,-1660.5"/>
<polygon fill="none" stroke="black" points="347.5,-1660.5 347.5,-1711.5 613.5,-1711.5 613.5,-1660.5 347.5,-1660.5"/>
<text text-anchor="start" x="350.5" y="-1697.3" font-family="Times,serif" font-size="14.00"> r_versus_g_max&lt;= &#160;&#160;red_i_int</text>
<text text-anchor="start" x="350.5" y="-1682.3" font-family="Times,serif" font-size="14.00">r_versus_g_min&lt;= &#160;&#160;green_i_int</text>
<text text-anchor="start" x="350.5" y="-1667.3" font-family="Times,serif" font-size="14.00">mux_select( 0)&lt;= 0 &#160;&#160;&#160;&#160;&#160;&#160;&#160;&#160;&#160;&#160;&#160;&#160;&#160;&#160;&#160;&#160;&#160;&#160;&#160;&#160;&#160;&#160;&#160;. </text>
</g>
<!-- node31&#45;&gt;node32 -->
<g id="edge11" class="edge"><title>node31:s&#45;&gt;node32</title>
<path fill="none" stroke="red" d="M778.5,-1770C778.5,-1761.3 702.034,-1740.24 626.571,-1721.58"/>
<polygon fill="red" stroke="red" points="626.966,-1718.08 616.419,-1719.09 625.293,-1724.87 626.966,-1718.08"/>
<text text-anchor="middle" x="748" y="-1740.8" font-family="Times,serif" font-size="14.00">yes</text>
</g>
<!-- node36 -->
<g id="node10" class="node"><title>node36</title>
<polygon fill="lightcyan" stroke="none" points="645.5,-1660.5 645.5,-1711.5 911.5,-1711.5 911.5,-1660.5 645.5,-1660.5"/>
<polygon fill="none" stroke="black" points="645.5,-1660.5 645.5,-1711.5 911.5,-1711.5 911.5,-1660.5 645.5,-1660.5"/>
<text text-anchor="start" x="648.5" y="-1697.3" font-family="Times,serif" font-size="14.00"> r_versus_g_max&lt;= &#160;&#160;green_i_int</text>
<text text-anchor="start" x="648.5" y="-1682.3" font-family="Times,serif" font-size="14.00">r_versus_g_min&lt;= &#160;&#160;red_i_int</text>
<text text-anchor="start" x="648.5" y="-1667.3" font-family="Times,serif" font-size="14.00">mux_select( 0)&lt;= 1 &#160;&#160;&#160;&#160;&#160;&#160;&#160;&#160;&#160;&#160;&#160;&#160;&#160;&#160;&#160;&#160;&#160;&#160;&#160;&#160;&#160;&#160;&#160;. </text>
</g>
<!-- node31&#45;&gt;node36 -->
<g id="edge12" class="edge"><title>node31:s&#45;&gt;node36</title>
<path fill="none" stroke="black" d="M778.5,-1770C778.5,-1756.78 778.5,-1742.36 778.5,-1729.33"/>
<polygon fill="black" stroke="black" points="782,-1729.23 778.5,-1719.23 775,-1729.23 782,-1729.23"/>
<text text-anchor="middle" x="787.5" y="-1740.8" font-family="Times,serif" font-size="14.00">no</text>
</g>
<!-- node40 -->
<g id="node11" class="node"><title>node40</title>
<polygon fill="lightcyan" stroke="none" points="664.5,-1588 664.5,-1609 893.5,-1609 893.5,-1588 664.5,-1588"/>
<polygon fill="none" stroke="black" points="664.5,-1588 664.5,-1609 893.5,-1609 893.5,-1588 664.5,-1588"/>
<text text-anchor="start" x="667.5" y="-1594.8" font-family="Times,serif" font-size="14.00"> blue_pix_delay&lt;= &#160;&#160;blue_i_int </text>
</g>
<!-- node32&#45;&gt;node40 -->
<g id="edge13" class="edge"><title>node32&#45;&gt;node40</title>
<path fill="none" stroke="green" d="M620.815,-1655.48C623.733,-1654.97 626.631,-1654.48 629.5,-1654 662.403,-1648.55 759.108,-1663.13 778.5,-1636"/>
<path fill="none" stroke="green" d="M778.5,-1635C780.133,-1632.72 781.176,-1630.11 781.79,-1627.39"/>
<polygon fill="green" stroke="green" points="785.29,-1627.48 782.412,-1617.28 778.304,-1627.05 785.29,-1627.48"/>
</g>
<!-- node36&#45;&gt;node40 -->
<g id="edge14" class="edge"><title>node36&#45;&gt;node40</title>
<path fill="none" stroke="green" d="M772.893,-1653.86C773.242,-1647.49 774.802,-1641.17 778.5,-1636"/>
</g>
<!-- node41 -->
<g id="node12" class="node"><title>node41</title>
<polygon fill="#c1b2ff" stroke="#c1b2ff" points="778.5,-1544 473.179,-1526 778.5,-1508 1083.82,-1526 778.5,-1544"/>
<text text-anchor="middle" x="778.5" y="-1522.3" font-family="Times,serif" font-size="14.00"> if &#160;&#160;&#160;r_versus_g_max&lt; &#160;&#160;blue_pix_delay then</text>
</g>
<!-- node40&#45;&gt;node41 -->
<g id="edge15" class="edge"><title>node40&#45;&gt;node41:n</title>
<path fill="none" stroke="green" d="M778.5,-1580.98C778.5,-1573.17 778.5,-1563.56 778.5,-1554.11"/>
<polygon fill="green" stroke="green" points="782,-1554 778.5,-1544 775,-1554 782,-1554"/>
</g>
<!-- node42 -->
<g id="node13" class="node"><title>node42</title>
<polygon fill="lightcyan" stroke="none" points="339.5,-1414 339.5,-1450 614.5,-1450 614.5,-1414 339.5,-1414"/>
<polygon fill="none" stroke="black" points="339.5,-1414 339.5,-1450 614.5,-1450 614.5,-1414 339.5,-1414"/>
<text text-anchor="start" x="342.5" y="-1435.8" font-family="Times,serif" font-size="14.00"> b_versus_max&lt;= &#160;&#160;blue_pix_delay</text>
<text text-anchor="start" x="342.5" y="-1420.8" font-family="Times,serif" font-size="14.00">mux_select( 1)&lt;= 2 &#160;&#160;&#160;&#160;&#160;&#160;&#160;&#160;&#160;&#160;&#160;&#160;&#160;&#160;&#160;&#160;&#160;&#160;&#160;&#160;&#160;&#160;&#160;&#160;&#160;. </text>
</g>
<!-- node41&#45;&gt;node42 -->
<g id="edge16" class="edge"><title>node41:s&#45;&gt;node42</title>
<path fill="none" stroke="red" d="M778.5,-1508C778.5,-1498.51 687.486,-1476.84 605.386,-1459.22"/>
<polygon fill="red" stroke="red" points="605.935,-1455.75 595.425,-1457.09 604.473,-1462.6 605.935,-1455.75"/>
<text text-anchor="middle" x="748" y="-1478.8" font-family="Times,serif" font-size="14.00">yes</text>
</g>
<!-- node45 -->
<g id="node14" class="node"><title>node45</title>
<polygon fill="lightcyan" stroke="none" points="646.5,-1414 646.5,-1450 911.5,-1450 911.5,-1414 646.5,-1414"/>
<polygon fill="none" stroke="black" points="646.5,-1414 646.5,-1450 911.5,-1450 911.5,-1414 646.5,-1414"/>
<text text-anchor="start" x="649.5" y="-1435.8" font-family="Times,serif" font-size="14.00"> b_versus_max&lt;= &#160;&#160;r_versus_g_max</text>
<text text-anchor="start" x="652.5" y="-1420.8" font-family="Times,serif" font-size="14.00">mux_select( 1)&lt;= &#160;&#160;mux_select( 0) </text>
</g>
<!-- node41&#45;&gt;node45 -->
<g id="edge17" class="edge"><title>node41:s&#45;&gt;node45</title>
<path fill="none" stroke="black" d="M778.5,-1508C778.5,-1494.78 778.5,-1480.24 778.5,-1467.51"/>
<polygon fill="black" stroke="black" points="782,-1467.32 778.5,-1457.32 775,-1467.32 782,-1467.32"/>
<text text-anchor="middle" x="787.5" y="-1478.8" font-family="Times,serif" font-size="14.00">no</text>
</g>
<!-- node48 -->
<g id="node15" class="node"><title>node48</title>
<polygon fill="#c1b2ff" stroke="#c1b2ff" points="720.5,-1370 418.194,-1352 720.5,-1334 1022.81,-1352 720.5,-1370"/>
<text text-anchor="middle" x="720.5" y="-1348.3" font-family="Times,serif" font-size="14.00"> if &#160;&#160;&#160;r_versus_g_min&gt; &#160;&#160;blue_pix_delay then</text>
</g>
<!-- node42&#45;&gt;node48 -->
<g id="edge18" class="edge"><title>node42&#45;&gt;node48:n</title>
<path fill="none" stroke="green" d="M621.04,-1408.23C623.883,-1407.81 626.706,-1407.4 629.5,-1407 644.696,-1404.81 763.695,-1404.09 766.5,-1389"/>
<path fill="none" stroke="green" d="M766.5,-1388C769.64,-1371.1 739.669,-1383.09 726.507,-1378.55"/>
<polygon fill="green" stroke="green" points="729.292,-1376.43 720.509,-1370.51 723.68,-1380.62 729.292,-1376.43"/>
</g>
<!-- node45&#45;&gt;node48 -->
<g id="edge19" class="edge"><title>node45&#45;&gt;node48:n</title>
<path fill="none" stroke="green" d="M767.596,-1406.76C766.111,-1400.99 765.419,-1394.82 766.5,-1389"/>
</g>
<!-- node49 -->
<g id="node16" class="node"><title>node49</title>
<polygon fill="lightcyan" stroke="none" points="299.5,-1254 299.5,-1275 556.5,-1275 556.5,-1254 299.5,-1254"/>
<polygon fill="none" stroke="black" points="299.5,-1254 299.5,-1275 556.5,-1275 556.5,-1254 299.5,-1254"/>
<text text-anchor="start" x="302.5" y="-1260.8" font-family="Times,serif" font-size="14.00"> b_versus_min&lt;= &#160;&#160;blue_pix_delay </text>
</g>
<!-- node48&#45;&gt;node49 -->
<g id="edge20" class="edge"><title>node48:s&#45;&gt;node49</title>
<path fill="none" stroke="red" d="M720.5,-1334C720.5,-1323.94 614.268,-1301.34 529.736,-1284.95"/>
<polygon fill="red" stroke="red" points="530.287,-1281.49 519.805,-1283.03 528.96,-1288.36 530.287,-1281.49"/>
<text text-anchor="middle" x="684" y="-1304.8" font-family="Times,serif" font-size="14.00">yes</text>
</g>
<!-- node51 -->
<g id="node17" class="node"><title>node51</title>
<polygon fill="lightcyan" stroke="none" points="588.5,-1254 588.5,-1275 852.5,-1275 852.5,-1254 588.5,-1254"/>
<polygon fill="none" stroke="black" points="588.5,-1254 588.5,-1275 852.5,-1275 852.5,-1254 588.5,-1254"/>
<text text-anchor="start" x="591.5" y="-1260.8" font-family="Times,serif" font-size="14.00"> b_versus_min&lt;= &#160;&#160;r_versus_g_min </text>
</g>
<!-- node48&#45;&gt;node51 -->
<g id="edge21" class="edge"><title>node48:s&#45;&gt;node51</title>
<path fill="none" stroke="black" d="M720.5,-1334C720.5,-1320.58 720.5,-1305.66 720.5,-1293.23"/>
<polygon fill="black" stroke="black" points="724,-1293.05 720.5,-1283.05 717,-1293.05 724,-1293.05"/>
<text text-anchor="middle" x="729.5" y="-1304.8" font-family="Times,serif" font-size="14.00">no</text>
</g>
<!-- node53 -->
<g id="node18" class="node"><title>node53</title>
<polygon fill="lightcyan" stroke="none" points="528.5,-1017 528.5,-1203 898.5,-1203 898.5,-1017 528.5,-1017"/>
<polygon fill="none" stroke="black" points="528.5,-1017 528.5,-1203 898.5,-1203 898.5,-1017 528.5,-1017"/>
<text text-anchor="start" x="531.5" y="-1188.8" font-family="Times,serif" font-size="14.00"> comp_max( 0)&lt;= &#160;&#160;b_versus_max</text>
<text text-anchor="start" x="531.5" y="-1173.8" font-family="Times,serif" font-size="14.00">comp_max( 1 to &#160;2)&lt;= &#160;&#160;comp_max( 0 to &#160;1)</text>
<text text-anchor="start" x="531.5" y="-1158.8" font-family="Times,serif" font-size="14.00">max_min_min&lt;= &#160;&#160;b_versus_max&#45; &#160;&#160;b_versus_min</text>
<text text-anchor="start" x="531.5" y="-1143.8" font-family="Times,serif" font-size="14.00">gbdiff&lt;=( &#160;&#160;green_i_int&#45; &#160;&#160;blue_i_int)</text>
<text text-anchor="start" x="531.5" y="-1128.8" font-family="Times,serif" font-size="14.00">brdiff&lt;=( &#160;&#160;blue_i_int&#45; &#160;&#160;red_i_int)</text>
<text text-anchor="start" x="531.5" y="-1113.8" font-family="Times,serif" font-size="14.00">rgdiff&lt;=( &#160;&#160;red_i_int&#45; &#160;&#160;green_i_int)</text>
<text text-anchor="start" x="531.5" y="-1098.8" font-family="Times,serif" font-size="14.00">c_gbdiff&lt;= &#160;&#160;c_60_degrees* &#160;&#160;gbdiff</text>
<text text-anchor="start" x="531.5" y="-1083.8" font-family="Times,serif" font-size="14.00">c_brdiff&lt;= &#160;&#160;c_60_degrees* &#160;&#160;brdiff</text>
<text text-anchor="start" x="531.5" y="-1068.8" font-family="Times,serif" font-size="14.00">c_rgdiff&lt;= &#160;&#160;c_60_degrees* &#160;&#160;rgdiff</text>
<text text-anchor="start" x="531.5" y="-1053.8" font-family="Times,serif" font-size="14.00">c_gbdiff_d0&lt;= &#160;&#160;c_gbdiff</text>
<text text-anchor="start" x="531.5" y="-1038.8" font-family="Times,serif" font-size="14.00">c_brdiff_d0&lt;= &#160;&#160;c_brdiff</text>
<text text-anchor="start" x="531.5" y="-1023.8" font-family="Times,serif" font-size="14.00">c_rgdiff_d0&lt;= &#160;&#160;c_rgdiff &#160;&#160;&#160;&#160;&#160;&#160;&#160;&#160;&#160;&#160;&#160;&#160;&#160;&#160;&#160;&#160;&#160;&#160;&#160;&#160;&#160;&#160;&#160;&#160;&#160;&#160;&#160;&#160;&#160;&#160;&#160;&#160;&#160;&#160;&#160;&#160;&#160;&#160;&#160;. </text>
</g>
<!-- node49&#45;&gt;node53 -->
<g id="edge22" class="edge"><title>node49&#45;&gt;node53</title>
<path fill="none" stroke="green" d="M563.025,-1248.02C639.193,-1239 719.182,-1229.43 719.5,-1229"/>
<path fill="none" stroke="green" d="M719.5,-1228C721.464,-1225.35 723.154,-1222.56 724.598,-1219.67"/>
<polygon fill="green" stroke="green" points="727.959,-1220.69 728.405,-1210.1 721.456,-1218.1 727.959,-1220.69"/>
</g>
<!-- node51&#45;&gt;node53 -->
<g id="edge23" class="edge"><title>node51&#45;&gt;node53</title>
<path fill="none" stroke="green" d="M715.845,-1246.65C715.22,-1240.55 715.811,-1233.98 719.5,-1229"/>
</g>
<!-- node65 -->
<g id="node19" class="node"><title>node65</title>
<polygon fill="#c1b2ff" stroke="#c1b2ff" points="709.5,-959 511.762,-941 709.5,-923 907.238,-941 709.5,-959"/>
<text text-anchor="middle" x="709.5" y="-937.3" font-family="Times,serif" font-size="14.00"> if &#160;&#160;&#160;max_min_min/= 0 then</text>
</g>
<!-- node53&#45;&gt;node65 -->
<g id="edge24" class="edge"><title>node53&#45;&gt;node65:n</title>
<path fill="none" stroke="green" d="M710.108,-1009.77C709.816,-996.271 709.603,-982.468 709.529,-969.113"/>
<polygon fill="green" stroke="green" points="713.029,-968.99 709.5,-959 706.029,-969.01 713.029,-968.99"/>
</g>
<!-- node66 -->
<g id="node20" class="node"><title>node66</title>
<polygon fill="lightcyan" stroke="none" points="44.5,-813.5 44.5,-864.5 590.5,-864.5 590.5,-813.5 44.5,-813.5"/>
<polygon fill="none" stroke="black" points="44.5,-813.5 44.5,-864.5 590.5,-864.5 590.5,-813.5 44.5,-813.5"/>
<text text-anchor="start" x="47.5" y="-850.3" font-family="Times,serif" font-size="14.00"> c_gbdiff_div_max&lt;=( &#160;&#160;c_gbdiff_d0/ &#160;&#160;max_min_min)mod 2** &#160;&#160;wordsize</text>
<text text-anchor="start" x="47.5" y="-835.3" font-family="Times,serif" font-size="14.00">c_brdiff_div_max&lt;=( &#160;&#160;c_brdiff_d0/ &#160;&#160;max_min_min)</text>
<text text-anchor="start" x="47.5" y="-820.3" font-family="Times,serif" font-size="14.00">c_rgdiff_div_max&lt;=( &#160;&#160;c_rgdiff_d0/ &#160;&#160;max_min_min) &#160;&#160;&#160;&#160;&#160;&#160;&#160;&#160;&#160;&#160;&#160;&#160;&#160;&#160;&#160;&#160;&#160;&#160;&#160;&#160;&#160;&#160;&#160;&#160;&#160;&#160;&#160;&#160;&#160;&#160;&#160;&#160;&#160;&#160;&#160;. </text>
</g>
<!-- node65&#45;&gt;node66 -->
<g id="edge25" class="edge"><title>node65:s&#45;&gt;node66</title>
<path fill="none" stroke="red" d="M709.5,-923C709.5,-911.969 613.189,-891.604 516.045,-873.868"/>
<polygon fill="red" stroke="red" points="516.501,-870.394 506.037,-872.051 515.25,-877.281 516.501,-870.394"/>
<text text-anchor="middle" x="674" y="-893.8" font-family="Times,serif" font-size="14.00">yes</text>
</g>
<!-- node70 -->
<g id="node21" class="node"><title>node70</title>
<polygon fill="lightcyan" stroke="none" points="623.5,-813.5 623.5,-864.5 796.5,-864.5 796.5,-813.5 623.5,-813.5"/>
<polygon fill="none" stroke="black" points="623.5,-813.5 623.5,-864.5 796.5,-864.5 796.5,-813.5 623.5,-813.5"/>
<text text-anchor="start" x="626.5" y="-850.3" font-family="Times,serif" font-size="14.00"> c_gbdiff_div_max&lt;= 0</text>
<text text-anchor="start" x="626.5" y="-835.3" font-family="Times,serif" font-size="14.00">c_brdiff_div_max&lt;= 0</text>
<text text-anchor="start" x="627.5" y="-820.3" font-family="Times,serif" font-size="14.00">c_rgdiff_div_max&lt;= 0 </text>
</g>
<!-- node65&#45;&gt;node70 -->
<g id="edge26" class="edge"><title>node65:s&#45;&gt;node70</title>
<path fill="none" stroke="black" d="M709.5,-923C709.5,-909.777 709.5,-895.362 709.5,-882.334"/>
<polygon fill="black" stroke="black" points="713,-882.233 709.5,-872.233 706,-882.233 713,-882.233"/>
<text text-anchor="middle" x="718.5" y="-893.8" font-family="Times,serif" font-size="14.00">no</text>
</g>
<!-- node74 -->
<g id="node22" class="node"><title>node74</title>
<polygon fill="lightcyan" stroke="none" points="506.5,-697 506.5,-763 891.5,-763 891.5,-697 506.5,-697"/>
<polygon fill="none" stroke="black" points="506.5,-697 506.5,-763 891.5,-763 891.5,-697 506.5,-697"/>
<text text-anchor="start" x="509.5" y="-748.8" font-family="Times,serif" font-size="14.00"> gb_mux_in&lt;= &#160;&#160;c_gbdiff_div_max</text>
<text text-anchor="start" x="509.5" y="-733.8" font-family="Times,serif" font-size="14.00">br_mux_in&lt;=( &#160;&#160;c_120_degrees+ &#160;&#160;c_brdiff_div_max)</text>
<text text-anchor="start" x="509.5" y="-718.8" font-family="Times,serif" font-size="14.00">rg_mux_in&lt;=( &#160;&#160;c_240_degrees+ &#160;&#160;c_rgdiff_div_max)</text>
<text text-anchor="start" x="515.5" y="-703.8" font-family="Times,serif" font-size="14.00">mux_select( 2 to &#160;4)&lt;= &#160;&#160;mux_select( 1 to &#160;3) &#160;&#160;&#160;&#160;&#160;&#160;&#160;. </text>
</g>
<!-- node66&#45;&gt;node74 -->
<g id="edge27" class="edge"><title>node66&#45;&gt;node74</title>
<path fill="none" stroke="green" d="M594.166,-806.973C656.07,-799.191 704.384,-792.172 706.5,-789"/>
<path fill="none" stroke="green" d="M706.5,-788C708.108,-785.589 709.249,-782.993 710.009,-780.285"/>
<polygon fill="green" stroke="green" points="713.512,-780.464 711.239,-770.116 706.563,-779.623 713.512,-780.464"/>
</g>
<!-- node70&#45;&gt;node74 -->
<g id="edge28" class="edge"><title>node70&#45;&gt;node74</title>
<path fill="none" stroke="green" d="M701.746,-806.795C701.758,-800.5 703.012,-794.228 706.5,-789"/>
</g>
<!-- node78 -->
<g id="node23" class="node"><title>node78</title>
<polygon fill="#c1b2ff" stroke="#c1b2ff" points="597.5,-653 398.924,-635 597.5,-617 796.076,-635 597.5,-653"/>
<text text-anchor="middle" x="597.5" y="-631.3" font-family="Times,serif" font-size="14.00"> if &#160;&#160;&#160;mux_select( 4)= 0 then</text>
</g>
<!-- node74&#45;&gt;node78 -->
<g id="edge29" class="edge"><title>node74&#45;&gt;node78:n</title>
<path fill="none" stroke="green" d="M614.633,-689.934C606.892,-682.342 601.044,-673.49 598.666,-663.249"/>
<polygon fill="green" stroke="green" points="602.108,-662.54 597.5,-653 595.153,-663.332 602.108,-662.54"/>
</g>
<!-- node79 -->
<g id="node24" class="node"><title>node79</title>
<polygon fill="lightcyan" stroke="none" points="34.5,-483 34.5,-504 548.5,-504 548.5,-483 34.5,-483"/>
<polygon fill="none" stroke="black" points="34.5,-483 34.5,-504 548.5,-504 548.5,-483 34.5,-483"/>
<text text-anchor="start" x="37.5" y="-489.8" font-family="Times,serif" font-size="14.00"> mux_out:= &#160;&#160;std_logic_vector(to_unsigned( &#160;&#160;gb_mux_in, &#160;&#160;wordsize) &#160;) </text>
</g>
<!-- node78&#45;&gt;node79 -->
<g id="edge30" class="edge"><title>node78:s&#45;&gt;node79</title>
<path fill="none" stroke="red" d="M597.5,-617C597.5,-591.257 394.406,-577.748 371.5,-566 349.128,-554.525 328.042,-535.327 313.14,-519.786"/>
<polygon fill="red" stroke="red" points="315.314,-516.984 305.937,-512.052 310.192,-521.755 315.314,-516.984"/>
<text text-anchor="middle" x="573" y="-587.8" font-family="Times,serif" font-size="14.00">yes</text>
</g>
<!-- node80 -->
<g id="node25" class="node"><title>node80</title>
<polygon fill="#c1b2ff" stroke="#c1b2ff" points="597.5,-566 380.658,-548 597.5,-530 814.342,-548 597.5,-566"/>
<text text-anchor="middle" x="597.5" y="-544.3" font-family="Times,serif" font-size="14.00"> elsif &#160;&#160;&#160;mux_select( 4)= 1 then</text>
</g>
<!-- node78&#45;&gt;node80 -->
<g id="edge31" class="edge"><title>node78:s&#45;&gt;node80</title>
<path fill="none" stroke="black" d="M597.5,-617C597.5,-603.578 597.5,-588.665 597.5,-576.233"/>
<polygon fill="black" stroke="black" points="601,-576.047 597.5,-566.047 594,-576.047 601,-576.047"/>
<text text-anchor="middle" x="606.5" y="-587.8" font-family="Times,serif" font-size="14.00">no</text>
</g>
<!-- node85 -->
<g id="node28" class="node"><title>node85</title>
<polygon fill="lightcyan" stroke="none" points="130.5,-342 130.5,-378 561.5,-378 561.5,-342 130.5,-342"/>
<polygon fill="none" stroke="black" points="130.5,-342 130.5,-378 561.5,-378 561.5,-342 130.5,-342"/>
<text text-anchor="start" x="133.5" y="-363.8" font-family="Times,serif" font-size="14.00"> pixel_hue_o&lt;= &#160;&#160;mux_out( &#160;&#160;wordsize&#45; 1 downto &#160;0)</text>
<text text-anchor="start" x="133.5" y="-348.8" font-family="Times,serif" font-size="14.00">range_times_255&lt;= &#160;&#160;max_min_min* 255 &#160;&#160;&#160;&#160;&#160;&#160;&#160;&#160;&#160;&#160;&#160;&#160;&#160;&#160;&#160;&#160;&#160;&#160;&#160;&#160;&#160;&#160;&#160;&#160;&#160;. </text>
</g>
<!-- node79&#45;&gt;node85 -->
<g id="edge32" class="edge"><title>node79&#45;&gt;node85</title>
<path fill="none" stroke="green" d="M96.8272,-475.981C60.2923,-465.54 40.4167,-448.798 65.5,-422 86.1979,-399.887 351.761,-430.721 337.5,-404"/>
<path fill="none" stroke="green" d="M337.5,-403C336.224,-400.663 335.462,-398.156 335.096,-395.573"/>
<polygon fill="green" stroke="green" points="338.599,-395.528 335.393,-385.429 331.602,-395.323 338.599,-395.528"/>
</g>
<!-- node81 -->
<g id="node26" class="node"><title>node81</title>
<polygon fill="lightcyan" stroke="none" points="81.5,-429 81.5,-450 593.5,-450 593.5,-429 81.5,-429"/>
<polygon fill="none" stroke="black" points="81.5,-429 81.5,-450 593.5,-450 593.5,-429 81.5,-429"/>
<text text-anchor="start" x="84.5" y="-435.8" font-family="Times,serif" font-size="14.00"> mux_out:= &#160;&#160;std_logic_vector(to_unsigned( &#160;&#160;br_mux_in, &#160;&#160;wordsize) &#160;) </text>
</g>
<!-- node80&#45;&gt;node81 -->
<g id="edge33" class="edge"><title>node80&#45;&gt;node81</title>
<path fill="none" stroke="red" d="M593.026,-530.304C587.673,-513.747 577.023,-489.023 558.5,-476 549.529,-469.693 533.765,-464.465 514.641,-460.148"/>
<polygon fill="red" stroke="red" points="515.185,-456.685 504.677,-458.037 513.734,-463.533 515.185,-456.685"/>
<text text-anchor="middle" x="599" y="-490.3" font-family="Times,serif" font-size="14.00">yes</text>
</g>
<!-- node83 -->
<g id="node27" class="node"><title>node83</title>
<polygon fill="lightcyan" stroke="none" points="625.5,-429 625.5,-450 1137.5,-450 1137.5,-429 625.5,-429"/>
<polygon fill="none" stroke="black" points="625.5,-429 625.5,-450 1137.5,-450 1137.5,-429 625.5,-429"/>
<text text-anchor="start" x="628.5" y="-435.8" font-family="Times,serif" font-size="14.00"> mux_out:= &#160;&#160;std_logic_vector(to_unsigned( &#160;&#160;rg_mux_in, &#160;&#160;wordsize) &#160;) </text>
</g>
<!-- node80&#45;&gt;node83 -->
<g id="edge34" class="edge"><title>node80&#45;&gt;node83</title>
<path fill="none" stroke="black" d="M634.92,-533.033C683.758,-514.805 769.63,-482.754 826.044,-461.698"/>
<polygon fill="black" stroke="black" points="827.381,-464.935 835.526,-458.159 824.933,-458.377 827.381,-464.935"/>
<text text-anchor="middle" x="791.5" y="-490.3" font-family="Times,serif" font-size="14.00">no</text>
</g>
<!-- node81&#45;&gt;node85 -->
<g id="edge35" class="edge"><title>node81&#45;&gt;node85</title>
<path fill="none" stroke="green" d="M340.687,-421.821C340.987,-415.874 340.361,-409.361 337.5,-404"/>
</g>
<!-- node83&#45;&gt;node85 -->
<g id="edge36" class="edge"><title>node83&#45;&gt;node85</title>
<path fill="none" stroke="green" d="M618.428,-422.37C479.629,-413.547 337.728,-404.426 337.5,-404"/>
</g>
<!-- node87 -->
<g id="node29" class="node"><title>node87</title>
<polygon fill="#c1b2ff" stroke="#c1b2ff" points="353.5,-298 154.924,-280 353.5,-262 552.076,-280 353.5,-298"/>
<text text-anchor="middle" x="353.5" y="-276.3" font-family="Times,serif" font-size="14.00"> if &#160;&#160;&#160;comp_max( 1)/= 0 then</text>
</g>
<!-- node85&#45;&gt;node87 -->
<g id="edge37" class="edge"><title>node85&#45;&gt;node87:n</title>
<path fill="none" stroke="green" d="M350.154,-334.755C351.432,-326.654 352.619,-317.35 353.173,-308.197"/>
<polygon fill="green" stroke="green" points="356.678,-308.107 353.5,-298 349.681,-307.883 356.678,-308.107"/>
</g>
<!-- node88 -->
<g id="node30" class="node"><title>node88</title>
<polygon fill="lightcyan" stroke="none" points="44.5,-182 44.5,-203 663.5,-203 663.5,-182 44.5,-182"/>
<polygon fill="none" stroke="black" points="44.5,-182 44.5,-203 663.5,-203 663.5,-182 44.5,-182"/>
<text text-anchor="start" x="47.5" y="-188.8" font-family="Times,serif" font-size="14.00"> range_255_div_by_max&lt;=(( &#160;&#160;range_times_255/ &#160;&#160;comp_max( 1))mod 2** &#160;&#160;wordsize) </text>
</g>
<!-- node87&#45;&gt;node88 -->
<g id="edge38" class="edge"><title>node87:s&#45;&gt;node88</title>
<path fill="none" stroke="red" d="M353.5,-262C353.5,-248.578 353.5,-233.665 353.5,-221.233"/>
<polygon fill="red" stroke="red" points="357,-221.047 353.5,-211.047 350,-221.047 357,-221.047"/>
<text text-anchor="middle" x="366" y="-232.8" font-family="Times,serif" font-size="14.00">yes</text>
</g>
<!-- node90 -->
<g id="node31" class="node"><title>node90</title>
<polygon fill="lightcyan" stroke="none" points="695.5,-182 695.5,-203 915.5,-203 915.5,-182 695.5,-182"/>
<polygon fill="none" stroke="black" points="695.5,-182 695.5,-203 915.5,-203 915.5,-182 695.5,-182"/>
<text text-anchor="start" x="698.5" y="-188.8" font-family="Times,serif" font-size="14.00"> range_255_div_by_max&lt;= 0 </text>
</g>
<!-- node87&#45;&gt;node90 -->
<g id="edge39" class="edge"><title>node87:s&#45;&gt;node90</title>
<path fill="none" stroke="black" d="M353.5,-262C353.5,-257.872 544.606,-230.362 678.292,-211.622"/>
<polygon fill="black" stroke="black" points="678.799,-215.086 688.217,-210.233 677.828,-208.153 678.799,-215.086"/>
<text text-anchor="middle" x="561.5" y="-232.8" font-family="Times,serif" font-size="14.00">no</text>
</g>
<!-- node92 -->
<g id="node32" class="node"><title>node92</title>
<polygon fill="lightcyan" stroke="none" points="506.5,-79.5 506.5,-130.5 1104.5,-130.5 1104.5,-79.5 506.5,-79.5"/>
<polygon fill="none" stroke="black" points="506.5,-79.5 506.5,-130.5 1104.5,-130.5 1104.5,-79.5 506.5,-79.5"/>
<text text-anchor="start" x="509.5" y="-116.3" font-family="Times,serif" font-size="14.00"> sat_out:= &#160;&#160;std_logic_vector(to_unsigned( &#160;&#160;range_255_div_by_max, &#160;&#160;wordsize) &#160;)</text>
<text text-anchor="start" x="509.5" y="-101.3" font-family="Times,serif" font-size="14.00">pixel_sat_o&lt;= &#160;&#160;sat_out</text>
<text text-anchor="start" x="509.5" y="-86.3" font-family="Times,serif" font-size="14.00">pixel_val_o&lt;= &#160;&#160;std_logic_vector(to_unsigned( &#160;&#160;comp_max( 2), &#160;&#160;wordsize) &#160;) &#160;&#160;&#160;&#160;&#160;&#160;&#160;. </text>
</g>
<!-- node88&#45;&gt;node92 -->
<g id="edge40" class="edge"><title>node88&#45;&gt;node92</title>
<path fill="none" stroke="green" d="M670.244,-175.418C742.35,-170.052 799.768,-163.732 805.5,-157"/>
<path fill="none" stroke="green" d="M805.5,-156C807.485,-153.669 808.917,-151.028 809.912,-148.209"/>
<polygon fill="green" stroke="green" points="813.4,-148.597 811.78,-138.127 806.517,-147.322 813.4,-148.597"/>
</g>
<!-- node90&#45;&gt;node92 -->
<g id="edge41" class="edge"><title>node90&#45;&gt;node92</title>
<path fill="none" stroke="green" d="M801.167,-174.725C800.635,-168.49 801.403,-161.812 805.5,-157"/>
</g>
<!-- node92&#45;&gt;node102 -->
<g id="edge42" class="edge"><title>node92&#45;&gt;node102</title>
<path fill="none" stroke="green" d="M802.475,-72.8466C802.739,-66.8072 803.61,-60.6205 805.5,-55"/>
</g>
<!-- node96&#45;&gt;node102 -->
<g id="edge43" class="edge"><title>node96&#45;&gt;node102</title>
<path fill="none" stroke="green" d="M1086.74,-1823.8C1110.9,-1804.59 1134.5,-1777.62 1134.5,-1745.5 1134.5,-1745.5 1134.5,-1745.5 1134.5,-1228 1134.5,-1116.22 1116.14,-1083.37 1150.5,-977 1156.15,-959.516 1168.92,-960.021 1172.5,-942"/>
<path fill="none" stroke="green" d="M1172.5,-940C1178.43,-896.178 1172.5,-884.722 1172.5,-840.5 1172.5,-840.5 1172.5,-840.5 1172.5,-493 1172.5,-304.908 1257.82,-201.533 1120.5,-73 1094.91,-49.0436 794.327,-88.2291 805.5,-55"/>
</g>
</g>
</svg>
